<svg width="106" height="32" viewBox="0 0 106 32" fill="none" xmlns="http://www.w3.org/2000/svg">
<g clip-path="url(#clip0_30772_8221)">
<mask id="mask0_30772_8221" style="mask-type:alpha" maskUnits="userSpaceOnUse" x="0" y="0" width="106" height="32">
<rect width="106" height="32" fill="#919EAB"/>
</mask>
<g mask="url(#mask0_30772_8221)">
<path fill-rule="evenodd" clip-rule="evenodd" d="M33.0532 22.1181C33.1013 22.236 33.1494 22.3539 33.1975 22.4686C33.5747 23.5356 33.6907 24.5442 33.4602 25.553C33.1407 27.6865 31.7188 29.5308 29.6869 30.3386C28.9615 30.656 28.1491 30.8 27.3364 30.8C27.1042 30.8 26.8137 30.7715 26.5814 30.7421C25.6238 30.6269 24.6374 30.3101 23.6791 29.7624C22.5182 29.0991 21.3573 28.1481 20.0804 26.7643C18.8036 28.1481 17.6716 29.0991 16.4817 29.7624C15.5238 30.3101 14.5371 30.6269 13.5792 30.7421C13.3467 30.7712 13.0567 30.8 12.8245 30.8C12.0121 30.8 11.2284 30.656 10.4737 30.3386C8.47078 29.5308 7.01993 27.7153 6.70071 25.553C6.55516 24.5148 6.67143 23.5057 7.04893 22.4392C7.1939 22.0646 7.33886 21.7187 7.48383 21.4013C7.58705 21.1709 7.69033 20.9461 7.79104 20.727C7.91693 20.453 8.03881 20.1877 8.15156 19.9311L8.18084 19.8738C10.1834 15.5496 12.36 11.1677 14.5948 6.84377L14.6821 6.6704C14.9197 6.22155 15.1517 5.76985 15.3782 5.31539C15.6682 4.79614 15.9877 4.24837 16.4232 3.72969C17.3805 2.63445 18.6864 2 20.1379 2C21.5597 2 22.8949 2.63445 23.8235 3.78758C24.2517 4.26619 24.5315 4.76852 24.8002 5.25085L24.8685 5.37328C25.0944 5.82802 25.3265 6.27973 25.5646 6.72829L25.6516 6.90166C27.9157 11.2256 30.063 15.6072 32.0659 19.9317L32.0949 19.9605C32.2083 20.2184 32.3309 20.4856 32.4577 20.7618C32.5575 20.9792 32.6599 21.2022 32.7623 21.4307C32.8592 21.6428 32.9562 21.8805 33.0532 22.1181ZM55.602 9.23649C55.602 10.2744 54.76 11.1102 53.715 11.1102C52.6701 11.1102 51.8287 10.2744 51.8287 9.23649C51.8287 8.19856 52.6414 7.3628 53.715 7.3628C54.7896 7.3916 55.602 8.22765 55.602 9.23649ZM47.8231 13.0131V13.4744C47.8231 13.4744 46.9237 12.3207 45.0081 12.3207C41.8449 12.3207 39.3775 14.7137 39.3775 18.0288C39.3775 21.3154 41.8159 23.7368 45.0081 23.7368C46.9527 23.7368 47.8231 22.5549 47.8231 22.5549V23.0448C47.8231 23.2755 47.9976 23.448 48.2296 23.448H50.5801V12.6082H48.2296C47.9976 12.609 47.8231 12.8112 47.8231 13.0131ZM45.474 21.1427C46.5187 21.1427 47.3896 20.5949 47.8245 19.9605V16.0973C47.4186 15.492 46.4899 14.9154 45.474 14.9154C43.6167 14.9154 42.1942 16.0685 42.1942 18.0289C42.1942 19.9896 43.6167 21.1427 45.474 21.1427ZM52.3232 12.6091H55.1092V23.4489H52.3232V12.6091ZM91.1266 13.4743C91.1266 13.4743 92.0266 12.3206 93.9422 12.3206C97.0764 12.3206 99.5432 14.7432 99.5432 18.0298C99.5432 21.3163 97.0764 23.7372 93.9126 23.7372C91.9976 23.7372 91.0976 22.5553 91.0976 22.5553V23.0452C91.0976 23.2471 90.924 23.4489 90.6917 23.4489H88.3406V7.39154H91.1266V13.4743ZM93.4778 21.1136C92.4035 21.1136 91.5621 20.5664 91.1266 19.9317V16.0685C91.5621 15.492 92.4908 14.8866 93.4778 14.8866C95.3351 14.8866 96.7572 16.0397 96.7572 18.0001C96.7572 19.9605 95.3354 21.1136 93.4778 21.1136ZM86.8887 23.4776V17.0202C86.8887 15.2039 86.5109 14.1662 85.5246 13.359C84.7119 12.6672 83.6959 12.3207 82.4768 12.3207C81.4031 12.3207 80.3295 12.6381 79.5168 13.4744V13.0131C79.5168 12.8112 79.3425 12.6093 79.1103 12.6093H76.9053V23.4491H79.6908V15.8959C80.2431 15.2614 81.1141 14.8289 81.9555 14.8289C83.5217 14.8289 84.1021 15.55 84.1021 17.337V23.4776H86.8887ZM70.143 12.3206C68.228 12.3206 67.328 13.4743 67.328 13.4743V7.39154H64.542V23.4489H66.8925C67.1248 23.4489 67.299 23.2471 67.299 23.0452V22.5553C67.299 22.5553 68.199 23.7372 70.114 23.7372C73.2778 23.7372 75.7446 21.3163 75.7446 18.0298C75.7736 14.7429 73.3068 12.3206 70.143 12.3206ZM67.328 19.9317C67.7635 20.5664 68.6049 21.1136 69.6785 21.1136C71.5365 21.1136 72.9583 19.9605 72.9583 18.0001C72.9583 16.0397 71.5365 14.8866 69.6785 14.8866C68.6922 14.8866 67.7635 15.492 67.328 16.0685V19.9317ZM62.1329 12.3206C62.9743 12.3206 63.4098 12.4651 63.4098 12.4651V15.0306C63.4098 15.0306 61.088 14.2521 59.6371 15.8957V23.4775H56.8506V12.6091H59.2017C59.4339 12.6091 59.6076 12.811 59.6076 13.0129V13.4743C60.1306 12.8686 61.2625 12.3206 62.1329 12.3206ZM20.1086 23.9676C18.5412 22.0072 17.5252 20.1624 17.1773 18.606C17.0323 17.9428 17.003 17.3662 17.0903 16.8473C17.148 16.3859 17.3226 15.9821 17.5548 15.6362C18.1063 14.8584 19.0349 14.3679 20.1089 14.3679C21.1831 14.3679 22.1407 14.8293 22.6632 15.6362C22.8954 15.9821 23.0694 16.3862 23.128 16.8473C23.2147 17.3665 23.1857 17.9716 23.0407 18.606C22.6913 20.1336 21.6754 21.9787 20.1086 23.9676ZM29.0473 28.6959C30.4692 28.1193 31.4851 26.8216 31.6881 25.3226C31.8043 24.5733 31.7174 23.8521 31.4857 23.1034C31.4252 22.9027 31.3366 22.7023 31.2394 22.4828C31.1969 22.3866 31.1527 22.2867 31.1085 22.1815C30.9927 21.9511 30.8841 21.7067 30.7756 21.4623C30.6665 21.2166 30.5573 20.9708 30.4408 20.7392V20.7104C28.4046 16.3468 26.2855 12.0218 24.0848 7.73771L23.9975 7.56434C23.8839 7.35245 23.7701 7.13349 23.6562 6.91433C23.5379 6.68668 23.4195 6.45881 23.3011 6.23841C23.0688 5.77791 22.8079 5.34534 22.4884 4.96951C21.8789 4.27832 21.0665 3.90307 20.1666 3.90307C19.2666 3.90307 18.4542 4.27832 17.8447 4.96951C17.5252 5.34448 17.2643 5.77704 17.032 6.23841C16.9194 6.4484 16.8068 6.66518 16.694 6.88209C16.5745 7.112 16.455 7.34206 16.3353 7.56434L16.2483 7.73771C14.0135 12.0041 11.8659 16.3859 9.86364 20.6816L9.83435 20.7389C9.60182 21.2288 9.37016 21.7193 9.16692 22.1806C9.12241 22.2868 9.07785 22.3875 9.03496 22.4845C8.93813 22.7034 8.84979 22.9031 8.78971 23.1031C8.49919 23.9103 8.4415 24.6309 8.52848 25.3514C8.73143 26.8504 9.74737 28.1481 11.1692 28.7247C11.8367 28.9839 12.5917 29.0994 13.3751 29.0127C14.1005 28.9266 14.8256 28.6959 15.5803 28.2633C16.6253 27.6868 17.6992 26.7928 18.8891 25.4666C17.0028 23.1316 15.8129 20.9693 15.3777 19.0671C15.1454 18.202 15.1167 17.3662 15.2327 16.6163C15.3487 15.8957 15.6102 15.2325 16.0164 14.6559C16.9161 13.3876 18.4255 12.6091 20.1083 12.6091C21.7911 12.6091 23.3005 13.3582 24.2007 14.6559C24.6069 15.2325 24.8685 15.8957 24.9841 16.6163C25.0717 17.3662 25.0424 18.1732 24.8392 19.0671C24.4037 20.9693 23.2428 23.1031 21.3275 25.4378C22.5466 26.7643 23.5913 27.6574 24.6362 28.2345C25.3904 28.6665 26.1164 28.8972 26.8418 28.9839C27.5959 29.0706 28.3509 28.9839 29.0473 28.6959Z" fill="#919EAB"/>
</g>
</g>
<defs>
<clipPath id="clip0_30772_8221">
<rect width="106" height="32" fill="white"/>
</clipPath>
</defs>
</svg>
