<svg width="107" height="32" viewBox="0 0 107 32" fill="none" xmlns="http://www.w3.org/2000/svg">
<g clip-path="url(#clip0_30790_8209)">
<mask id="mask0_30790_8209" style="mask-type:alpha" maskUnits="userSpaceOnUse" x="0" y="0" width="107" height="32">
<rect x="0.5" width="106" height="32" fill="#919EAB"/>
</mask>
<g mask="url(#mask0_30790_8209)">
<path d="M40.8606 13.0418C40.8606 10.5001 42.7138 8.72532 46.0816 8.72532C48.1365 8.72532 49.818 9.38142 50.729 10.0241C50.8594 10.1159 51.092 10.3385 50.9525 10.7526C50.7738 11.1986 50.446 11.8693 50.2108 12.3049C50.0739 12.5588 49.7244 12.5254 49.5453 12.4346C48.8964 12.1058 47.832 11.5495 46.8543 11.447C46.6067 11.42 46.3577 11.4092 46.1087 11.4147C45.2476 11.4339 44.5282 11.7329 44.2749 12.3899C44.2252 12.5142 44.1975 12.6461 44.1931 12.7799C44.1694 13.6456 45.3742 13.9587 46.8337 14.2094C49.5472 14.6743 51.6 15.4698 51.6 18.2626C51.6 20.6344 49.7151 22.7778 46.0219 22.7121C43.5872 22.6629 41.8599 21.8402 40.9343 21.0419C40.9028 21.0148 40.5505 20.656 40.7393 20.2244C40.9554 19.6688 41.3203 19.0321 41.6066 18.694C41.7657 18.4769 42.1858 18.4424 42.4042 18.5777C43.1671 19.0518 44.4227 19.8121 45.8701 19.8625C45.9843 19.8664 46.0975 19.8671 46.2087 19.8642C47.5106 19.8326 48.2983 19.339 48.2818 18.5074C48.2677 17.7748 47.2355 17.3469 45.5917 17.0371C42.97 16.5432 40.8606 15.6791 40.8606 13.0418ZM64.6779 16.6609C62.8292 16.6851 61.1341 17.1904 61.0853 18.6352C61.0847 19.7817 62.0148 20.3448 63.3201 20.2711C64.5723 20.1505 65.5272 19.6074 65.9479 18.8868C66.1035 18.6198 66.1272 17.6204 66.1177 17.1933C66.1153 17.1024 65.9356 16.9304 65.8569 16.8973C65.4641 16.7318 65.1735 16.681 64.6779 16.6609ZM58.5264 10.8392C59.3909 10.0656 61.105 8.86151 63.8368 8.92498C67.4418 8.99994 69.3463 10.69 69.5236 14.7329C69.5967 16.4002 69.4756 21.0507 69.4468 22.2093C69.4425 22.3756 69.3862 22.4905 69.1622 22.4948C68.5686 22.5186 67.197 22.5092 66.5668 22.5009C66.2488 22.4855 66.2119 22.3277 66.2078 22.1625C66.2051 22.0545 66.1958 21.734 66.1891 21.4728C66.1855 21.3342 66.0553 21.3382 66.022 21.3737C65.1764 22.2766 63.7915 22.7126 62.3187 22.7126C60.0803 22.7126 57.8487 21.3958 57.8555 18.788C57.8624 16.1173 59.7561 14.8 61.8364 14.4894C63.1685 14.2911 64.67 14.4674 65.8071 14.9192C65.8798 14.9484 66.0284 14.9062 66.0296 14.8031C66.0342 14.4628 66.0177 13.8142 65.9524 13.5068C65.7855 12.7236 65.1321 12.0935 63.7596 11.9236C63.4769 11.8888 63.1923 11.8773 62.9074 11.9C61.8163 11.9857 60.5033 12.8365 59.9595 13.155C59.8316 13.2298 59.6312 13.1751 59.5664 13.0916C59.249 12.6816 58.4514 11.4826 58.3886 11.291C58.3259 11.1 58.4147 10.9398 58.5264 10.8392ZM70.7123 15.8108C70.6909 12.0861 73.2861 8.94385 77.5003 8.91623C80.1298 8.89908 82.0401 10.0912 82.377 10.6535C82.4454 10.7855 82.4103 10.8958 82.3629 11.0288C82.1403 11.4988 81.578 12.4068 81.1773 12.9214C81.0067 13.1406 80.8214 12.9528 80.6061 12.8096C80.0087 12.4116 78.8735 11.925 77.7564 11.925C75.7296 11.9254 74.2203 13.3151 74.2371 15.8719C74.2529 18.3254 75.6985 19.6738 77.7634 19.7227C78.8428 19.7498 79.8886 19.1294 80.4513 18.6211C80.6279 18.4669 80.8108 18.5441 81.0127 18.7019C81.4089 19.1069 81.9772 19.7321 82.2923 20.1625C82.4986 20.4016 82.3442 20.6356 82.27 20.7296C81.4151 21.8114 79.7639 22.7219 77.5788 22.7342C73.0034 22.7663 70.7334 19.5488 70.7123 15.8108ZM92.5526 22.5663C92.7674 22.5502 95.0592 22.2339 95.7626 22.0728C95.9373 22.033 95.9994 21.8862 95.9017 21.7407C95.5089 21.1517 94.4762 19.479 93.3945 17.9815C92.3996 16.6047 91.3511 15.3937 91.012 14.9278C90.9293 14.8146 90.9338 14.7031 91.0238 14.6153C91.6689 13.984 94.3674 11.3382 95.382 10.2456C95.7748 9.82053 95.539 9.63768 95.2053 9.53836C94.5609 9.34625 93.5185 9.1068 92.9257 8.98176C92.6758 8.92892 92.3748 8.94745 92.1562 9.17215C91.1418 10.1181 88.0459 13.2254 87.1217 14.1542C86.9553 14.3218 86.8584 14.2846 86.8575 14.0451C86.85 12.2543 86.8146 4.58737 86.7507 3.32629C86.7462 3.15956 86.5457 3.03298 86.4327 3.02697C85.8515 2.99661 84.3834 2.98786 83.8048 3.02183C83.6427 3.04018 83.4878 3.20536 83.4738 3.34499C83.3403 5.36147 83.5304 20.164 83.6096 22.2347C83.6153 22.3845 83.7268 22.5006 83.869 22.509C84.4462 22.5424 85.8738 22.5402 86.5404 22.5277C86.8683 22.5277 86.9085 22.2972 86.9085 22.2972L86.9579 18.3251C86.9579 18.3251 86.9917 18.1484 87.0464 18.0901C87.2814 17.8371 87.9315 17.1403 88.2087 16.871C88.2752 16.8064 88.3802 16.811 88.4481 16.9024C88.7775 17.3467 89.7166 18.791 90.5871 20.0808C91.3869 21.2658 92.1336 22.3174 92.1857 22.3917C92.3062 22.5632 92.4466 22.5696 92.5526 22.5663ZM53.5755 22.5526C53.7771 22.5593 55.3063 22.5575 55.9838 22.5567C56.2119 22.5611 56.3305 22.3884 56.338 22.2359C56.4819 19.3326 56.4203 5.50985 56.3294 3.32715C56.3219 3.13847 56.2411 3.06762 56.1123 3.05047C55.5308 2.9726 53.8783 2.99078 53.3486 3.12937C53.245 3.1563 53.1839 3.23504 53.1807 3.33624C53.051 8.96237 53.1385 21.9334 53.1659 22.179C53.1932 22.425 53.3215 22.544 53.5755 22.5526Z" fill="#919EAB"/>
<path d="M12.6499 16.78C11.7075 16.7872 10.9092 16.2256 10.6148 15.3491C10.6039 15.316 10.5937 15.2826 10.5843 15.2491C10.2635 14.1266 10.8855 12.9523 12.0003 12.5763L29.8804 6.586C30.0927 6.52459 30.3124 6.4925 30.5334 6.49063C31.5008 6.48309 32.3211 7.05702 32.6226 7.95206L32.6494 8.03851C32.9839 9.20765 32.1528 10.2512 31.1571 10.5857C31.1564 10.5862 30.9753 10.6475 13.3761 16.6563C13.1422 16.736 12.897 16.7778 12.6499 16.78Z" fill="#919EAB"/>
<path d="M15.63 25.5734C14.6803 25.5802 13.8792 25.0265 13.5883 24.1626C13.5773 24.1297 13.567 24.0966 13.5574 24.0632C13.2322 22.9274 13.8535 21.7407 14.972 21.3642L32.8528 15.3191C33.0839 15.2419 33.3225 15.2024 33.5625 15.2002C34.5148 15.193 35.3515 15.7748 35.6467 16.6486L35.6741 16.7395C35.8469 17.3434 35.7448 18.0222 35.4014 18.5579C35.1455 18.9562 34.3383 19.3068 34.3383 19.3068L16.3895 25.4439C16.1447 25.5267 15.8884 25.5702 15.63 25.5734Z" fill="#919EAB"/>
<path d="M30.5148 25.6116C30.0513 25.6161 29.5984 25.4737 29.2207 25.205C28.8431 24.9362 28.5603 24.5548 28.4127 24.1154L22.4453 6.38965L22.4154 6.29016C22.0921 5.15979 22.7139 3.9807 23.8283 3.60505C24.0513 3.5301 24.2818 3.49099 24.5139 3.48893C24.8587 3.48636 25.1923 3.56406 25.5065 3.71929C25.7654 3.8473 25.9964 4.02522 26.1862 4.24282C26.3761 4.46042 26.521 4.71341 26.6127 4.98723L32.5797 22.7114L32.597 22.7684C32.9322 23.942 32.3118 25.1218 31.1973 25.4974C30.9772 25.5709 30.7469 25.6095 30.5148 25.6116Z" fill="#919EAB"/>
<path d="M21.6445 28.5972C21.1807 28.6016 20.7275 28.4591 20.3497 28.1901C19.972 27.9211 19.689 27.5395 19.5415 27.0998L13.5756 9.3747C13.4831 9.10125 13.4456 8.81225 13.4649 8.52425C13.4843 8.23624 13.5604 7.95489 13.6886 7.6963C13.8169 7.43772 13.9949 7.20697 14.2125 7.01727C14.4301 6.82757 14.6829 6.68265 14.9566 6.59079C15.177 6.5171 15.4077 6.47844 15.6401 6.47621C16.1037 6.47164 16.5567 6.61395 16.9344 6.88273C17.3121 7.15152 17.595 7.53299 17.7425 7.97246L23.7086 25.6982C23.8011 25.9718 23.8387 26.2609 23.8192 26.5491C23.7998 26.8372 23.7237 27.1187 23.5952 27.3773C23.4668 27.636 23.2886 27.8668 23.0708 28.0565C22.853 28.2461 22.6 28.391 22.3261 28.4826C22.1061 28.5564 21.8765 28.5952 21.6445 28.5972Z" fill="#919EAB"/>
<path d="M27.5729 21.6198L31.7339 20.1972L30.3737 16.1577L26.2079 17.5654L27.5729 21.6198Z" fill="#919EAB"/>
<path d="M18.7164 24.648L22.877 23.2255L21.5065 19.1551L17.3418 20.5634L18.7164 24.648Z" fill="#919EAB"/>
<path d="M24.6104 12.821L28.7717 11.4003L27.4274 7.40794L23.2584 8.8047L24.6104 12.821Z" fill="#919EAB"/>
<path d="M15.7529 15.8451L19.9142 14.4244L18.5535 10.3811L14.3845 11.7777L15.7529 15.8451Z" fill="#919EAB"/>
</g>
</g>
<defs>
<clipPath id="clip0_30790_8209">
<rect width="106" height="32" fill="white" transform="translate(0.5)"/>
</clipPath>
</defs>
</svg>
