<svg width="88" height="88" viewBox="0 0 88 88" fill="none" xmlns="http://www.w3.org/2000/svg">
<path opacity="0.08" d="M70.3059 0.631649C75.0962 3.28898 75.3045 15.0572 75.7905 23.9403C76.3459 32.8234 77.179 38.8973 80.3031 46.9452C83.4272 54.9932 88.9118 65.0151 87.8704 72.9871C86.8985 80.9591 79.47 86.9571 71.4861 87.8682C63.5717 88.7793 55.1018 84.6794 46.8402 84.3757C38.5787 84.072 30.4559 87.5645 23.0969 86.3497C15.6684 85.059 9.00361 79.061 4.76868 71.3168C0.533758 63.6485 -1.20187 54.3098 0.880884 46.2619C2.96363 38.2899 8.86476 31.5327 13.5857 24.7754C18.2371 17.9423 21.7084 11.1091 27.0541 8.7555C32.3304 6.40186 39.5506 8.67958 47.8122 6.55371C56.0738 4.42785 65.5156 -2.02569 70.3059 0.631649Z" fill="url(#paint0_linear_30769_8320)"/>
<g clip-path="url(#clip0_30769_8320)">
<path d="M74.1709 39.5218L67.7509 34.6677V13.25C67.7509 12.5596 67.1912 12 66.5009 12H21.501C20.8106 12 20.251 12.5596 20.251 13.25V34.6678L13.6737 39.6408C12.6272 40.4307 12.0019 41.6824 12.001 42.9901V71.799C12.001 74.1155 13.8856 76 16.202 76H71.7997C74.1162 76 76.0007 74.1154 76.0007 71.799V42.9901C76.0009 41.6003 75.3175 40.3068 74.1709 39.5218ZM14.501 49.3421L26.0372 58.0644L14.501 66.7869V49.3421ZM28.1097 56.4973L27.7511 56.2262V19.5001H60.2508V56.2262L59.8921 56.4973L46.6083 46.4534C45.8512 45.8818 44.9507 45.5798 44.0058 45.5798C44.0034 45.5798 44.0008 45.5798 43.9982 45.5798C43.0513 45.5798 42.1507 45.8819 41.3929 46.4541L28.1097 56.4973ZM73.5009 49.3421V66.7866L61.9648 58.0643L73.5009 49.3421ZM72.6887 41.5354C72.7074 41.5496 72.7265 41.5631 72.7459 41.5762C73.2186 41.8937 73.5009 42.4222 73.5009 42.9902V46.2081L67.7509 50.5555V37.8019L72.6887 41.5354ZM65.2509 14.5V52.4455L62.7508 54.3359V18.2501C62.7508 17.5597 62.1911 17.0001 61.5008 17.0001H26.5011C25.8107 17.0001 25.2511 17.5597 25.2511 18.2501V54.3359L22.751 52.4455V14.5H65.2509ZM15.1807 41.6356L20.251 37.8019V50.5553L14.501 46.2078V42.9909C14.5013 42.4554 14.7488 41.9616 15.1807 41.6356ZM71.7997 73.5H16.202C15.264 73.5 14.501 72.737 14.501 71.799V69.921L42.8999 48.4487C43.2197 48.2073 43.5993 48.0798 44.0003 48.0798H44.0035C44.4024 48.0798 44.7822 48.2074 45.101 48.4482L73.5007 69.9209V71.799C73.5009 72.737 72.7377 73.5 71.7997 73.5Z" fill="#22B8CF"/>
<path d="M42.7796 39.5121L45.4314 42.1639C46.649 43.2906 48.3256 41.6125 47.1992 40.396L44.5641 37.7609C46.9695 35.5415 48.8574 34.6335 52.6146 33.0781C53.0004 32.9184 53.281 32.5766 53.3624 32.1671C53.4439 31.7576 53.3155 31.3344 53.0204 31.0392L45.0652 23.0841C44.77 22.7889 44.3465 22.6604 43.9374 22.7421C43.5279 22.8236 43.1861 23.1041 43.0264 23.4899C41.2827 27.7017 40.3525 29.5646 37.4762 32.4409L35.7085 34.2087C34.2465 35.6709 34.2465 38.0499 35.7085 39.512L36.5924 40.3959C37.9834 41.8466 40.5046 41.8465 41.8956 40.3959L42.7796 39.5121ZM44.6115 26.1661L49.9384 31.493C47.2312 32.6662 45.2087 33.7637 42.7964 35.9932L40.1112 33.3081C42.3409 30.8957 43.4384 28.8731 44.6115 26.1661ZM40.1279 38.6281C39.6675 39.109 38.8206 39.109 38.3602 38.6281L37.4764 37.7442C36.989 37.2569 36.989 36.4639 37.4764 35.9765L38.3602 35.0926L41.0119 37.7442L40.1279 38.6281Z" fill="#22B8CF"/>
</g>
<defs>
<linearGradient id="paint0_linear_30769_8320" x1="0" y1="0" x2="88" y2="88" gradientUnits="userSpaceOnUse">
<stop stop-color="#77F0ED"/>
<stop offset="1" stop-color="#22B8CF"/>
</linearGradient>
<clipPath id="clip0_30769_8320">
<rect width="64" height="64" fill="white" transform="translate(12 12)"/>
</clipPath>
</defs>
</svg>
