<svg width="88" height="88" viewBox="0 0 88 88" fill="none" xmlns="http://www.w3.org/2000/svg">
<path opacity="0.08" d="M73.6563 1.36972C78.441 4.85107 78.6204 15.7153 79.2783 23.9385C79.8764 32.1016 80.953 37.6838 83.3454 44.6465C85.7377 51.6092 89.4459 59.9525 87.4124 65.6547C85.3789 71.4169 77.5439 74.4781 70.307 78.9798C63.1299 83.4216 56.5508 89.3038 50.869 87.7432C45.1273 86.2427 40.3426 77.2992 32.2085 73.3377C24.0745 69.4361 12.6509 70.4565 6.25135 66.3149C-0.148233 62.1133 -1.46404 52.6896 1.52642 45.0067C4.51688 37.3237 11.7538 31.3213 17.6151 26.1593C23.4166 20.9373 27.7228 16.5556 32.8664 13.2543C38.01 10.0131 43.9909 7.85224 51.7063 4.79105C59.4217 1.78989 68.8715 -2.11163 73.6563 1.36972Z" fill="url(#paint0_linear_30769_8346)"/>
<path d="M49 66H47V56.2C47 55.9348 46.8946 55.6805 46.7071 55.4929C46.5196 55.3054 46.2652 55.2 46 55.2C45.7348 55.2 45.4804 55.3054 45.2929 55.4929C45.1054 55.6805 45 55.9348 45 56.2V66H19V46H27.32C27.5852 46 27.8396 45.8947 28.0271 45.7071C28.2146 45.5196 28.32 45.2652 28.32 45C28.32 44.7348 28.2146 44.4805 28.0271 44.2929C27.8396 44.1054 27.5852 44 27.32 44H18C17.7348 44 17.4804 44.1054 17.2929 44.2929C17.1054 44.4805 17 44.7348 17 45V66H15C14.7348 66 14.4804 66.1054 14.2929 66.2929C14.1054 66.4805 14 66.7348 14 67V69C14 70.3261 14.5268 71.5979 15.4645 72.5356C16.4021 73.4732 17.6739 74 19 74H45C46.3261 74 47.5979 73.4732 48.5355 72.5356C49.4732 71.5979 50 70.3261 50 69V67C50 66.7348 49.8946 66.4805 49.7071 66.2929C49.5196 66.1054 49.2652 66 49 66ZM48 69C48 69.7957 47.6839 70.5587 47.1213 71.1213C46.5587 71.684 45.7956 72 45 72H43V71C43 70.7348 42.8946 70.4805 42.7071 70.2929C42.5196 70.1054 42.2652 70 42 70C41.7348 70 41.4804 70.1054 41.2929 70.2929C41.1054 70.4805 41 70.7348 41 71V72H23V71C23 70.7348 22.8946 70.4805 22.7071 70.2929C22.5196 70.1054 22.2652 70 22 70C21.7348 70 21.4804 70.1054 21.2929 70.2929C21.1054 70.4805 21 70.7348 21 71V72H19C18.2044 72 17.4413 71.684 16.8787 71.1213C16.3161 70.5587 16 69.7957 16 69V68H48V69Z" fill="#FFC81A"/>
<path d="M66 20H68C68.2652 20 68.5196 19.8947 68.7071 19.7071C68.8946 19.5196 69 19.2652 69 19C69 18.7348 68.8946 18.4805 68.7071 18.2929C68.5196 18.1054 68.2652 18 68 18H66C65.2043 18 64.4413 18.3161 63.8787 18.8787C63.3161 19.4413 63 20.2044 63 21V22H62C61.7348 22 61.4804 22.1054 61.2929 22.2929C61.1054 22.4805 61 22.7348 61 23C61 23.2652 61.1054 23.5196 61.2929 23.7071C61.4804 23.8947 61.7348 24 62 24H63V27C63 27.2652 63.1054 27.5196 63.2929 27.7071C63.4804 27.8947 63.7348 28 64 28C64.2652 28 64.5196 27.8947 64.7071 27.7071C64.8946 27.5196 65 27.2652 65 27V24H66C66.2652 24 66.5196 23.8947 66.7071 23.7071C66.8946 23.5196 67 23.2652 67 23C67 22.7348 66.8946 22.4805 66.7071 22.2929C66.5196 22.1054 66.2652 22 66 22H65V21C65 20.7348 65.1054 20.4805 65.2929 20.2929C65.4804 20.1054 65.7348 20 66 20Z" fill="#FFC81A"/>
<path d="M71 14H59C58.2043 14 57.4413 14.3161 56.8787 14.8787C56.3161 15.4413 56 16.2044 56 17V19C56 19.2652 56.1054 19.5196 56.2929 19.7071C56.4804 19.8947 56.7348 20 57 20C57.2652 20 57.5196 19.8947 57.7071 19.7071C57.8946 19.5196 58 19.2652 58 19V17C58 16.7348 58.1054 16.4805 58.2929 16.2929C58.4804 16.1054 58.7348 16 59 16H71C71.2652 16 71.5196 16.1054 71.7071 16.2929C71.8946 16.4805 72 16.7348 72 17V29C72 29.2652 71.8946 29.5196 71.7071 29.7071C71.5196 29.8947 71.2652 30 71 30H59C58.7348 30 58.4804 29.8947 58.2929 29.7071C58.1054 29.5196 58 29.2652 58 29V23C58 22.7348 57.8946 22.4805 57.7071 22.2929C57.5196 22.1054 57.2652 22 57 22C56.7348 22 56.4804 22.1054 56.2929 22.2929C56.1054 22.4805 56 22.7348 56 23V29C56 29.7957 56.3161 30.5587 56.8787 31.1214C57.4413 31.684 58.2043 32 59 32H71C71.7957 32 72.5587 31.684 73.1213 31.1214C73.6839 30.5587 74 29.7957 74 29V17C74 16.2044 73.6839 15.4413 73.1213 14.8787C72.5587 14.3161 71.7957 14 71 14Z" fill="#FFC81A"/>
<path d="M61 54C61 54.7912 61.2346 55.5645 61.6741 56.2223C62.1136 56.8801 62.7384 57.3928 63.4693 57.6956C64.2002 57.9983 65.0044 58.0775 65.7804 57.9232C66.5563 57.7688 67.269 57.3879 67.8284 56.8285C68.3878 56.2691 68.7688 55.5563 68.9232 54.7804C69.0775 54.0045 68.9983 53.2002 68.6955 52.4693C68.3928 51.7384 67.8801 51.1137 67.2223 50.6742C66.5645 50.2346 65.7911 50 65 50C63.9391 50 62.9217 50.4215 62.1716 51.1716C61.4214 51.9218 61 52.9392 61 54ZM67 54C67 54.3956 66.8827 54.7823 66.6629 55.1112C66.4432 55.4401 66.1308 55.6964 65.7654 55.8478C65.3999 55.9992 64.9978 56.0388 64.6098 55.9616C64.2219 55.8844 63.8655 55.694 63.5858 55.4143C63.3061 55.1346 63.1156 54.7782 63.0384 54.3902C62.9613 54.0023 63.0009 53.6001 63.1522 53.2347C63.3036 52.8692 63.56 52.5569 63.8889 52.3371C64.2178 52.1173 64.6044 52 65 52C65.5304 52 66.0392 52.2108 66.4142 52.5858C66.7893 52.9609 67 53.4696 67 54Z" fill="#FFC81A"/>
<path d="M71 45H59C58.2043 45 57.4413 45.3161 56.8787 45.8787C56.3161 46.4413 56 47.2044 56 48V60C56 60.7957 56.3161 61.5587 56.8787 62.1213C57.4413 62.684 58.2043 63 59 63H71C71.7957 63 72.5587 62.684 73.1213 62.1213C73.6839 61.5587 74 60.7957 74 60V58C74 57.7348 73.8946 57.4805 73.7071 57.2929C73.5196 57.1054 73.2652 57 73 57C72.7348 57 72.4804 57.1054 72.2929 57.2929C72.1054 57.4805 72 57.7348 72 58V60C72 60.2652 71.8946 60.5196 71.7071 60.7071C71.5196 60.8947 71.2652 61 71 61H59C58.7348 61 58.4804 60.8947 58.2929 60.7071C58.1054 60.5196 58 60.2652 58 60V48C58 47.7348 58.1054 47.4805 58.2929 47.2929C58.4804 47.1054 58.7348 47 59 47H71C71.2652 47 71.5196 47.1054 71.7071 47.2929C71.8946 47.4805 72 47.7348 72 48V54C72 54.2652 72.1054 54.5196 72.2929 54.7071C72.4804 54.8947 72.7348 55 73 55C73.2652 55 73.5196 54.8947 73.7071 54.7071C73.8946 54.5196 74 54.2652 74 54V48C74 47.2044 73.6839 46.4413 73.1213 45.8787C72.5587 45.3161 71.7957 45 71 45Z" fill="#FFC81A"/>
<path d="M36.47 25.8507C36.6291 25.9493 36.8128 26.0013 37 26.0007C37.1565 25.9998 37.3107 25.9621 37.45 25.8907L43.45 22.8907C43.6138 22.8068 43.7513 22.6793 43.8472 22.5223C43.9432 22.3652 43.994 22.1848 43.994 22.0007C43.994 21.8167 43.9432 21.6362 43.8472 21.4792C43.7513 21.3221 43.6138 21.1946 43.45 21.1107L37.45 18.1107C37.2978 18.034 37.1284 17.9975 36.9581 18.0046C36.7878 18.0117 36.6222 18.0623 36.4769 18.1515C36.3316 18.2406 36.2115 18.3655 36.128 18.5141C36.0446 18.6627 36.0005 18.8302 36 19.0007V25.0007C35.9996 25.1707 36.0426 25.3379 36.1249 25.4866C36.2071 25.6353 36.3259 25.7606 36.47 25.8507ZM38 20.6207L40.76 22.0007L38 23.3807V20.6207Z" fill="#FFC81A"/>
<path d="M39 31C40.78 31 42.5201 30.4722 44.0001 29.4832C45.4802 28.4943 46.6337 27.0887 47.3149 25.4442C47.9961 23.7996 48.1743 21.99 47.8271 20.2442C47.4798 18.4984 46.6226 16.8947 45.364 15.636C44.1053 14.3774 42.5016 13.5202 40.7558 13.1729C39.01 12.8257 37.2004 13.0039 35.5558 13.6851C33.9113 14.3663 32.5057 15.5198 31.5168 16.9999C30.5278 18.4799 30 20.22 30 22C30 24.387 30.9482 26.6761 32.636 28.364C34.3239 30.0518 36.6131 31 39 31ZM39 15C40.3845 15 41.7378 15.4105 42.889 16.1797C44.0401 16.9489 44.9373 18.0421 45.4672 19.3212C45.997 20.6003 46.1356 22.0078 45.8655 23.3656C45.5954 24.7235 44.9287 25.9708 43.9497 26.9498C42.9708 27.9287 41.7235 28.5954 40.3656 28.8655C39.0078 29.1356 37.6003 28.997 36.3212 28.4672C35.0421 27.9373 33.9489 27.0401 33.1797 25.889C32.4105 24.7379 32 23.3845 32 22C32 20.1435 32.7375 18.363 34.0503 17.0503C35.363 15.7375 37.1435 15 39 15Z" fill="#FFC81A"/>
<path d="M49 35C49.1552 35 49.3083 34.9639 49.4472 34.8944C49.586 34.825 49.7068 34.7242 49.8 34.6L52.8 30.6C52.9591 30.3878 53.0274 30.1211 52.9899 29.8586C52.9524 29.596 52.8121 29.3591 52.6 29.2C52.3878 29.0409 52.1211 28.9725 51.8585 29.0101C51.596 29.0476 51.3591 29.1878 51.2 29.4L48.2 33.4C48.0408 33.6122 47.9725 33.8789 48.01 34.1414C48.0475 34.404 48.1878 34.6409 48.4 34.8C48.5731 34.9298 48.7836 35 49 35Z" fill="#FFC81A"/>
<path d="M51.2 38.6C51.2931 38.7242 51.4139 38.825 51.5528 38.8944C51.6916 38.9639 51.8447 39 52 39C52.2163 39 52.4269 38.9298 52.6 38.8L56.6 35.8C56.8121 35.6409 56.9524 35.404 56.9899 35.1414C57.0274 34.8789 56.9591 34.6122 56.8 34.4C56.6408 34.1878 56.4039 34.0476 56.1414 34.0101C55.8788 33.9725 55.6121 34.0409 55.4 34.2L51.4 37.2C51.1878 37.3591 51.0475 37.596 51.01 37.8586C50.9725 38.1211 51.0408 38.3878 51.2 38.6Z" fill="#FFC81A"/>
<path d="M60.9999 40.7993C60.9762 40.6667 60.9259 40.5403 60.8521 40.4277C60.7782 40.315 60.6824 40.2184 60.5703 40.1437C60.4583 40.069 60.3323 40.0177 60.1999 39.9929C60.0675 39.9681 59.9315 39.9703 59.7999 39.9993L54.7999 40.9993C54.6686 41.0125 54.5412 41.0513 54.4249 41.1137C54.3086 41.1761 54.2057 41.2608 54.1221 41.3629C53.9533 41.5692 53.8734 41.8341 53.8999 42.0993C53.9265 42.3645 54.0573 42.6084 54.2635 42.7771C54.4698 42.9459 54.7347 43.0258 54.9999 42.9993H55.1999L60.1999 41.9993C60.3325 41.9756 60.4589 41.9253 60.5716 41.8514C60.6842 41.7776 60.7808 41.6818 60.8555 41.5697C60.9302 41.4576 60.9815 41.3316 61.0064 41.1993C61.0312 41.0669 61.029 40.9308 60.9999 40.7993Z" fill="#FFC81A"/>
<path d="M15 41H27C27.2652 41 27.5196 40.8947 27.7071 40.7071C27.8946 40.5196 28 40.2652 28 40V24C28 23.7348 27.8946 23.4805 27.7071 23.2929C27.5196 23.1054 27.2652 23 27 23H15C14.7348 23 14.4804 23.1054 14.2929 23.2929C14.1054 23.4805 14 23.7348 14 24V40C14 40.2652 14.1054 40.5196 14.2929 40.7071C14.4804 40.8947 14.7348 41 15 41ZM16 25H26V39H16V25Z" fill="#FFC81A"/>
<path d="M23 27H21C20.7348 27 20.4804 27.1054 20.2929 27.2929C20.1054 27.4805 20 27.7348 20 28C20 28.2652 20.1054 28.5196 20.2929 28.7071C20.4804 28.8947 20.7348 29 21 29H23C23.2652 29 23.5196 28.8947 23.7071 28.7071C23.8946 28.5196 24 28.2652 24 28C24 27.7348 23.8946 27.4805 23.7071 27.2929C23.5196 27.1054 23.2652 27 23 27Z" fill="#FFC81A"/>
<path d="M23 31H19C18.7348 31 18.4804 31.1054 18.2929 31.2929C18.1054 31.4805 18 31.7348 18 32C18 32.2652 18.1054 32.5196 18.2929 32.7071C18.4804 32.8947 18.7348 33 19 33H23C23.2652 33 23.5196 32.8947 23.7071 32.7071C23.8946 32.5196 24 32.2652 24 32C24 31.7348 23.8946 31.4805 23.7071 31.2929C23.5196 31.1054 23.2652 31 23 31Z" fill="#FFC81A"/>
<path d="M23 35H19C18.7348 35 18.4804 35.1054 18.2929 35.2929C18.1054 35.4805 18 35.7348 18 36C18 36.2652 18.1054 36.5196 18.2929 36.7071C18.4804 36.8947 18.7348 37 19 37H23C23.2652 37 23.5196 36.8947 23.7071 36.7071C23.8946 36.5196 24 36.2652 24 36C24 35.7348 23.8946 35.4805 23.7071 35.2929C23.5196 35.1054 23.2652 35 23 35Z" fill="#FFC81A"/>
<path d="M48.1202 40.7001C48.0545 40.5859 47.967 40.4857 47.8626 40.4052C47.7582 40.3248 47.639 40.2657 47.5118 40.2314C47.3846 40.197 47.2518 40.1881 47.1211 40.205C46.9905 40.2219 46.8644 40.2645 46.7502 40.3301C46.6359 40.3958 46.5357 40.4833 46.4553 40.5877C46.3749 40.6921 46.3158 40.8113 46.2814 40.9385C46.2471 41.0657 46.2381 41.1984 46.255 41.3291C46.272 41.4598 46.3145 41.5859 46.3802 41.7001L50.7902 49.3301L34.7902 55.3301C34.7902 55.3301 34.7902 55.3301 34.7202 55.3301H34.6402L30.3102 57.8301C30.0824 57.9618 29.8309 58.0472 29.5701 58.0815C29.3093 58.1159 29.0442 58.0984 28.7902 58.0301C28.2798 57.8922 27.8447 57.5579 27.5802 57.1001L25.5802 53.6401C25.3449 53.1874 25.2915 52.6619 25.4309 52.1712C25.5703 51.6804 25.892 51.2615 26.3302 51.0001L29.7902 49.0001L32.2902 53.3301C32.3783 53.4827 32.5051 53.6093 32.6579 53.6971C32.8107 53.7849 32.9839 53.8308 33.1602 53.8301C33.336 53.8308 33.509 53.7851 33.6615 53.6976C33.8141 53.6101 33.9409 53.484 34.0292 53.3318C34.1174 53.1797 34.164 53.007 34.1641 52.8311C34.1643 52.6552 34.1181 52.4824 34.0302 52.3301L31.4502 47.8701L44.0002 37.5201L44.4102 38.2301C44.4758 38.3444 44.5633 38.4446 44.6677 38.525C44.7721 38.6054 44.8913 38.6645 45.0185 38.6988C45.1457 38.7332 45.2785 38.7422 45.4092 38.7252C45.5398 38.7083 45.6659 38.6658 45.7802 38.6001C45.8944 38.5345 45.9946 38.4469 46.075 38.3425C46.1555 38.2382 46.2145 38.119 46.2489 37.9917C46.2833 37.8645 46.2922 37.7318 46.2753 37.6011C46.2583 37.4704 46.2158 37.3444 46.1502 37.2301L45.1502 35.5001C45.0769 35.3748 44.9772 35.267 44.858 35.1841C44.7389 35.1012 44.6031 35.0452 44.4602 35.0201C44.3164 34.993 44.1685 34.9978 44.0268 35.0341C43.8852 35.0704 43.7532 35.1373 43.6402 35.2301L29.6402 46.7701L25.3802 49.2301C24.6157 49.6754 24.0204 50.3616 23.6874 51.1812C23.3545 52.0009 23.3027 52.9079 23.5402 53.7601L22.5402 54.3301C22.0249 54.626 21.6091 55.0682 21.3455 55.6007C21.0819 56.1332 20.9824 56.7319 21.0595 57.3211C21.1366 57.9102 21.3869 58.4632 21.7787 58.9099C22.1705 59.3565 22.6861 59.6768 23.2602 59.8301C23.5146 59.8975 23.7769 59.9311 24.0402 59.9301C24.5662 59.9279 25.0829 59.7902 25.5402 59.5301L26.5402 58.9601C27.0205 59.4564 27.6247 59.8154 28.2902 60.0001C28.6319 60.0957 28.9853 60.1428 29.3402 60.1401C30.0431 60.1417 30.7336 59.9553 31.3402 59.6001L32.2102 59.1001L34.2102 62.5701C34.6076 63.2573 35.2613 63.7589 36.0279 63.9651C36.7945 64.1713 37.6116 64.0652 38.3002 63.6701C38.6418 63.4733 38.9412 63.2111 39.1814 62.8984C39.4216 62.5858 39.5978 62.2289 39.7 61.8481C39.8021 61.4673 39.8282 61.0701 39.7768 60.6793C39.7253 60.2884 39.5974 59.9115 39.4002 59.5701L37.5802 56.4001L52.5802 50.7701C52.7162 50.719 52.8394 50.6388 52.9413 50.5352C53.0432 50.4316 53.1213 50.307 53.1702 50.1701C53.2188 50.0349 53.2378 49.8907 53.2257 49.7475C53.2136 49.6042 53.1708 49.4653 53.1002 49.3401L48.1202 40.7001ZM24.5002 57.7901C24.3863 57.8559 24.2605 57.8987 24.1301 57.9158C23.9997 57.933 23.8672 57.9242 23.7402 57.8901C23.484 57.8236 23.2646 57.6581 23.1302 57.4301C23.0643 57.3162 23.0216 57.1905 23.0044 57.0601C22.9873 56.9297 22.996 56.7971 23.0302 56.6701C23.0643 56.5424 23.1234 56.4228 23.2041 56.3181C23.2848 56.2134 23.3854 56.1257 23.5002 56.0601L24.3702 55.5601L25.3702 57.2901L24.5002 57.7901ZM37.6602 60.5901C37.726 60.704 37.7687 60.8297 37.7859 60.9601C37.803 61.0906 37.7943 61.2231 37.7602 61.3501C37.6888 61.6043 37.5199 61.82 37.2902 61.9501C37.0617 62.0813 36.7908 62.1171 36.5361 62.0497C36.2815 61.9823 36.0637 61.8171 35.9302 61.5901L33.9302 58.1201L35.5902 57.1701H35.6702L37.6602 60.5901Z" fill="#FFC81A"/>
<defs>
<linearGradient id="paint0_linear_30769_8346" x1="0" y1="0" x2="88" y2="88" gradientUnits="userSpaceOnUse">
<stop stop-color="#FFE475"/>
<stop offset="1" stop-color="#FFC81A"/>
</linearGradient>
</defs>
</svg>
