<svg width="88" height="88" viewBox="0 0 88 88" fill="none" xmlns="http://www.w3.org/2000/svg">
<path opacity="0.08" d="M66.0312 10.5286C71.4024 15.5348 75.6494 20.5409 79.5216 26.1729C83.3939 31.7422 86.8914 37.9374 87.7658 44.6331C88.6401 51.3289 86.9538 58.5878 84.5805 66.7854C82.2697 75.0456 79.2718 84.3696 73.0262 87.0604C66.7807 89.7512 57.2874 85.934 48.4812 84.6824C39.7374 83.4309 31.6182 84.8076 23.2491 83.3683C14.8176 81.8665 6.13629 77.6112 2.4514 70.6026C-1.17102 63.594 0.203004 53.8319 0.515282 44.3202C0.890016 34.8085 0.140546 25.4845 4.44998 19.5397C8.75942 13.6575 18.0028 11.0918 26.0596 7.65005C34.1164 4.14574 40.9865 -0.297238 47.6068 0.0156473C54.2271 0.328533 60.7225 5.45985 66.0312 10.5286Z" fill="url(#paint0_linear_30769_8333)"/>
<g clip-path="url(#clip0_30769_8333)">
<path d="M38.6807 16.2797C26.3142 16.2797 16.2892 26.3047 16.2892 38.6712C16.2892 51.0377 26.3142 61.0627 38.6807 61.0627C51.0472 61.0627 61.0722 51.0377 61.0722 38.6712C61.0587 26.3103 51.0416 16.2932 38.6807 16.2797ZM38.6807 18.4122C45.267 18.4174 51.4389 21.6274 55.2248 27.017L52.5592 29.6826C51.9105 29.2901 51.1678 29.0801 50.4096 29.0749C48.0541 29.0749 46.1445 30.9844 46.1445 33.3399C46.1483 34.099 46.3571 34.8428 46.7491 35.4927L39.7672 42.4746C38.4452 41.6685 36.7837 41.6685 35.4617 42.4746L30.6123 37.6252C31.0043 36.9753 31.2131 36.2315 31.2169 35.4724C31.2198 33.1216 29.3165 31.2135 26.9657 31.2106C25.0215 31.2082 23.3228 32.5233 22.8382 34.4062H18.8823C20.9012 25.0835 29.1419 18.4262 38.6807 18.4122ZM52.5421 33.3399C52.5421 34.5177 51.5874 35.4724 50.4096 35.4724C49.2318 35.4724 48.2771 34.5177 48.2771 33.3399C48.2771 32.1621 49.2318 31.2074 50.4096 31.2074C51.5874 31.2074 52.5421 32.1621 52.5421 33.3399ZM39.747 46.1351C39.747 47.3129 38.7923 48.2676 37.6144 48.2676C36.4366 48.2676 35.4819 47.3129 35.4819 46.1351C35.4819 44.9572 36.4366 44.0025 37.6144 44.0025C38.7923 44.0025 39.747 44.9572 39.747 46.1351ZM29.0843 35.4724C29.0843 36.6503 28.1296 37.605 26.9518 37.605C25.774 37.605 24.8193 36.6503 24.8193 35.4724C24.8193 34.2946 25.774 33.3399 26.9518 33.3399C28.1296 33.3399 29.0843 34.2946 29.0843 35.4724ZM48.5242 56.3853C45.513 58.0572 42.125 58.9332 38.6807 58.9301C27.4996 58.9377 18.4293 49.8799 18.4217 38.6988C18.4212 37.9772 18.4593 37.256 18.5358 36.5386H22.8382C23.3229 38.4159 25.0129 39.73 26.9518 39.7374C27.7109 39.7336 28.4547 39.5248 29.1046 39.1328L33.954 43.9822C33.562 44.632 33.3531 45.3759 33.3494 46.1349C33.3494 48.4904 35.2589 50.4 37.6144 50.4C39.9699 50.4 41.8795 48.4904 41.8795 46.1349C41.8758 45.3759 41.6669 44.632 41.2749 43.9822L48.2568 37.0003C48.9067 37.3923 49.6505 37.6011 50.4096 37.6048C52.7651 37.6048 54.6746 35.6953 54.6746 33.3398C54.6709 32.5807 54.462 31.8369 54.0701 31.187L56.3945 28.8636C61.8211 38.637 58.2974 50.9588 48.5242 56.3853Z" fill="#0CD66E"/>
<path d="M65.3372 22.677C67.2761 22.6697 68.9661 21.3557 69.4509 19.4782H75.9998V17.3457H69.4509C68.9661 15.4683 67.2761 14.1543 65.3372 14.1469C62.9817 14.1469 61.0722 16.0565 61.0722 18.412C61.0759 19.171 61.2847 19.9149 61.6767 20.5648L59.8033 22.4382C50.8394 10.7598 34.1055 8.55932 22.4271 17.5233C10.7487 26.4872 8.54821 43.2212 17.5121 54.8996C25.9735 65.923 41.4837 68.5971 53.1477 61.0433L66.4568 74.3524C68.6398 76.5354 72.179 76.5354 74.3621 74.3524C76.5451 72.1693 76.5451 68.6301 74.3621 66.4471L61.053 53.138C66.7653 44.3392 66.7653 33.0029 61.053 24.2039L63.1855 22.0714C63.835 22.4635 64.5786 22.6728 65.3372 22.677ZM65.3372 16.2795C66.515 16.2795 67.4697 17.2342 67.4697 18.412C67.4697 19.5898 66.515 20.5445 65.3372 20.5445C64.1594 20.5445 63.2047 19.5898 63.2047 18.412C63.2047 17.2342 64.1595 16.2795 65.3372 16.2795ZM72.8544 67.9548C74.22 69.2898 74.2449 71.4791 72.9099 72.8447C71.575 74.2103 69.3857 74.2352 68.0201 72.9003C68.0013 72.882 67.9829 72.8635 67.9645 72.8447L59.3811 64.2613L64.271 59.3714L72.8544 67.9548ZM62.7633 57.8637L57.8734 62.7536L54.922 59.8022C55.0723 59.687 55.2131 59.5601 55.3613 59.4418C55.5095 59.3234 55.6811 59.1816 55.84 59.0483C56.0735 58.8521 56.3038 58.6538 56.5299 58.4501C56.6461 58.3435 56.757 58.2369 56.8711 58.1303C57.3083 57.7208 57.7316 57.2975 58.141 56.8603C58.2476 56.7463 58.3543 56.6354 58.4609 56.5191C58.6645 56.2931 58.8629 56.0628 59.0591 55.8293C59.1927 55.6715 59.3239 55.5119 59.4525 55.3505C59.5698 55.2034 59.6967 55.0626 59.8118 54.9123L62.7633 57.8637ZM58.6283 52.9109C58.2924 53.3801 57.9459 53.8396 57.5802 54.2821C57.4735 54.4111 57.3594 54.5359 57.2496 54.6628C56.9233 55.0424 56.5864 55.4106 56.2388 55.7674C56.0874 55.9238 55.9334 56.0777 55.7771 56.2291C55.4216 56.5767 55.0535 56.9137 54.6725 57.2399C54.5456 57.3466 54.4208 57.4628 54.2918 57.5705C53.8493 57.9362 53.3897 58.2827 52.9206 58.6186C41.8826 66.5043 26.5419 63.9489 18.6562 52.9109C10.7706 41.873 13.326 26.5322 24.3639 18.6466C35.4019 10.7609 50.7426 13.3162 58.6283 24.3543C64.7301 32.8953 64.7301 44.3699 58.6283 52.9109Z" fill="#0CD66E"/>
</g>
<defs>
<linearGradient id="paint0_linear_30769_8333" x1="0" y1="0" x2="88" y2="88" gradientUnits="userSpaceOnUse">
<stop stop-color="#69F290"/>
<stop offset="1" stop-color="#0CD66E"/>
</linearGradient>
<clipPath id="clip0_30769_8333">
<rect width="64" height="64" fill="white" transform="translate(12 12)"/>
</clipPath>
</defs>
</svg>
