<svg width="36" height="36" viewBox="0 0 36 36" fill="none" xmlns="http://www.w3.org/2000/svg">
<path d="M26.1249 25.2411L21.4048 20.521C22.539 19.1594 23.1046 17.4129 22.9839 15.6449C22.8632 13.8768 22.0655 12.2234 20.7568 11.0285C19.4481 9.83363 17.7291 9.1893 15.9574 9.22956C14.1857 9.26982 12.4978 9.99157 11.2447 11.2447C9.99157 12.4978 9.26982 14.1857 9.22956 15.9574C9.1893 17.7291 9.83363 19.4481 11.0285 20.7568C12.2234 22.0655 13.8768 22.8632 15.6449 22.9839C17.4129 23.1046 19.1594 22.539 20.521 21.4048L25.2411 26.1249L26.1249 25.2411ZM10.4999 16.1249C10.4999 15.0124 10.8298 13.9248 11.4479 12.9998C12.066 12.0748 12.9445 11.3538 13.9723 10.9281C15.0001 10.5023 16.1311 10.3909 17.2223 10.608C18.3134 10.825 19.3157 11.3608 20.1024 12.1474C20.8891 12.9341 21.4248 13.9364 21.6418 15.0275C21.8589 16.1187 21.7475 17.2497 21.3217 18.2775C20.896 19.3053 20.175 20.1838 19.25 20.8019C18.325 21.42 17.2374 21.7499 16.1249 21.7499C14.6336 21.7483 13.2038 21.1551 12.1493 20.1006C11.0947 19.046 10.5016 17.6162 10.4999 16.1249Z" fill="#212B36"/>
</svg>
