<svg width="16" height="16" viewBox="0 0 16 16" fill="none" xmlns="http://www.w3.org/2000/svg">
<path d="M7.99994 10.3333C7.9122 10.3338 7.82523 10.317 7.744 10.2838C7.66278 10.2506 7.5889 10.2017 7.52661 10.14L4.85994 7.47329C4.79778 7.41113 4.74847 7.33734 4.71483 7.25613C4.68119 7.17491 4.66388 7.08787 4.66388 6.99996C4.66388 6.91205 4.68119 6.82501 4.71483 6.74379C4.74847 6.66258 4.79778 6.58879 4.85994 6.52663C4.9221 6.46447 4.99589 6.41516 5.07711 6.38152C5.15832 6.34788 5.24537 6.33057 5.33327 6.33057C5.42118 6.33057 5.50823 6.34788 5.58944 6.38152C5.67066 6.41516 5.74445 6.46447 5.80661 6.52663L7.99994 8.73329L10.1999 6.61329C10.2613 6.5451 10.336 6.49029 10.4195 6.4523C10.503 6.41431 10.5934 6.39396 10.6851 6.3925C10.7768 6.39105 10.8678 6.40853 10.9524 6.44386C11.0371 6.47919 11.1135 6.5316 11.177 6.59782C11.2404 6.66403 11.2895 6.74263 11.3212 6.82869C11.3529 6.91475 11.3665 7.00643 11.3612 7.09799C11.3558 7.18955 11.3316 7.27901 11.2901 7.3608C11.2486 7.44258 11.1907 7.51492 11.1199 7.57329L8.45327 10.1466C8.33136 10.2642 8.16928 10.3309 7.99994 10.3333Z" fill="#212B36"/>
</svg>
